<?xml version="1.0" encoding="UTF-8" standalone="no"?><!DOCTYPE svg PUBLIC "-//W3C//DTD SVG 1.1//EN" "http://www.w3.org/Graphics/SVG/1.1/DTD/svg11.dtd"><svg width="100%" height="100%" viewBox="0 0 512 512" version="1.1" xmlns="http://www.w3.org/2000/svg" xmlns:xlink="http://www.w3.org/1999/xlink" xml:space="preserve" style="fill-rule:evenodd;clip-rule:evenodd;stroke-linecap:round;stroke-linejoin:round;stroke-miterlimit:1.5;"><path d="M429.541,201.483l-31.11,0l0,-32.223l31.055,0.052l0,-32.531l32.537,0l0,32.531l31.055,-0.052l0,32.223l-31.111,0l0,32.702l-32.426,0l0,-32.702Z" style="fill:#0070c9;stroke:#000;stroke-opacity:0;stroke-width:0.75px;"/><rect x="111.508" y="235.129" width="32.109" height="32.109" style="fill:#0070c9;"/><rect x="175.726" y="235.129" width="32.109" height="32.109" style="fill:#0070c9;"/><rect x="239.945" y="235.129" width="32.109" height="32.109" style="fill:#0070c9;"/><rect x="304.164" y="235.129" width="32.109" height="32.109" style="fill:#0070c9;"/><rect x="368.383" y="235.129" width="32.109" height="32.109" style="fill:#0070c9;"/><rect x="111.508" y="299.348" width="32.109" height="32.109" style="fill:#0070c9;"/><rect x="175.726" y="299.348" width="32.109" height="32.109" style="fill:#0070c9;"/><rect x="239.945" y="299.348" width="32.109" height="32.109" style="fill:#0070c9;"/><rect x="304.164" y="299.348" width="32.109" height="32.109" style="fill:#0070c9;"/><rect x="111.508" y="363.567" width="32.109" height="32.109" style="fill:#0070c9;"/><rect x="175.726" y="363.567" width="32.109" height="32.109" style="fill:#0070c9;"/><rect x="239.945" y="363.567" width="32.109" height="32.109" style="fill:#0070c9;"/><rect x="304.164" y="363.567" width="32.109" height="32.109" style="fill:#0070c9;"/><rect x="368.383" y="299.348" width="32.109" height="32.109" style="fill:#0070c9;"/><path d="M413.336,461.5l-314.672,0c-26.558,0 -48.164,-21.606 -48.164,-48.164l0,-282.563c0,-26.557 21.606,-48.164 48.164,-48.164l19.266,0l0,-32.109l32.109,0l0,32.109l211.922,0l0,-32.109l32.109,0l0,32.109l19.266,0c22.305,0.001 41.117,15.241 46.57,35.855l-36.273,0c-2.789,-2.337 -6.382,-3.745 -10.297,-3.745l-19.266,0l0,32.109l-32.109,0l0,-32.109l-211.922,0l0,32.109l-32.109,0l0,-32.109l-19.266,0c-8.853,0 -16.055,7.202 -16.055,16.054l0,38.532l295.575,0l0.047,32.109l-295.622,0l0,211.922c0,8.853 7.202,16.055 16.055,16.055l314.672,0c8.853,-0.001 16.055,-7.203 16.055,-16.055l0,-157.839l32.109,0.166l0,157.673c0,26.557 -21.606,48.164 -48.164,48.164Z" style="fill:#0070c9;"/></svg>