<?xml version="1.0" encoding="UTF-8" standalone="no"?><!DOCTYPE svg PUBLIC "-//W3C//DTD SVG 1.1//EN" "http://www.w3.org/Graphics/SVG/1.1/DTD/svg11.dtd"><svg width="100%" height="100%" viewBox="0 0 385 385" version="1.1" xmlns="http://www.w3.org/2000/svg" xmlns:xlink="http://www.w3.org/1999/xlink" xml:space="preserve" style="fill-rule:evenodd;clip-rule:evenodd;stroke-linejoin:round;stroke-miterlimit:1.41421;"><g><g id="Arrow_Down_Circle"><path d="M192.485,0c-106.3,0 -192.485,86.173 -192.485,192.485c0,106.3 86.185,192.485 192.485,192.485c106.312,0 192.485,-86.185 192.485,-192.485c0,-106.312 -86.173,-192.485 -192.485,-192.485Zm0,360.909c-93.018,0 -168.424,-75.406 -168.424,-168.424c0,-93.018 75.406,-168.424 168.424,-168.424c93.018,0 168.424,75.406 168.424,168.424c0,93.018 -75.406,168.424 -168.424,168.424Z" style="fill:#0070c9;fill-rule:nonzero;"/><path d="M265.913,208.178l-61.628,60.753l0,-182.175l-23.601,0l0,182.175l-61.629,-60.753l-16.683,16.52l90.182,88.827l90.042,-88.815l-16.683,-16.532Z" style="fill:#0070c9;fill-rule:nonzero;"/></g></g></svg>