<?xml version="1.0" encoding="UTF-8" standalone="no"?><!DOCTYPE svg PUBLIC "-//W3C//DTD SVG 1.1//EN" "http://www.w3.org/Graphics/SVG/1.1/DTD/svg11.dtd"><svg width="100%" height="100%" viewBox="0 0 512 512" version="1.1" xmlns="http://www.w3.org/2000/svg" xmlns:xlink="http://www.w3.org/1999/xlink" xml:space="preserve" style="fill-rule:evenodd;clip-rule:evenodd;stroke-linejoin:round;stroke-miterlimit:1.41421;"><path d="M412.88,261.464c-11.423,0 -20.682,9.259 -20.682,20.682l0,156.879c0,17.43 -14.181,31.611 -31.612,31.611l-287.611,0c-17.43,0 -31.611,-14.181 -31.611,-31.611l0,-287.611c0,-17.43 14.181,-31.611 31.611,-31.611l156.879,0c11.422,0 20.682,-9.26 20.682,-20.682c0,-11.422 -9.26,-20.682 -20.682,-20.682l-156.879,0c-40.238,0 -72.975,32.737 -72.975,72.975l0,287.611c0,40.239 32.737,72.975 72.975,72.975l287.61,0c40.239,0 72.976,-32.736 72.977,-72.975l0,-156.879c0,-11.423 -9.259,-20.682 -20.682,-20.682Z" style="fill:#0070c9;fill-rule:nonzero;"/><path d="M491.318,0l-156.879,0c-11.423,0 -20.682,9.26 -20.682,20.682c0,11.422 9.259,20.682 20.682,20.682l136.197,0l0,136.197c0,11.422 9.259,20.682 20.682,20.682c11.423,0 20.682,-9.26 20.682,-20.682l0,-156.879c0,-11.422 -9.259,-20.682 -20.682,-20.682Z" style="fill:#0070c9;fill-rule:nonzero;"/><path d="M505.942,6.058c-8.077,-8.076 -21.172,-8.076 -29.249,0l-287.611,287.61c-8.077,8.077 -8.077,21.172 0,29.249c4.038,4.039 9.332,6.058 14.625,6.058c5.294,0 10.587,-2.02 14.625,-6.058l287.61,-287.61c8.077,-8.077 8.077,-21.172 0,-29.249Z" style="fill:#0070c9;fill-rule:nonzero;"/></svg>